G04*
G04 #@! TF.GenerationSoftware,Altium Limited,Altium Designer,20.0.10 (225)*
G04*
G04 Layer_Color=16711935*
%FSLAX44Y44*%
%MOMM*%
G71*
G01*
G75*
%ADD15R,1.3100X1.3100*%
%ADD16C,1.3100*%
%ADD17C,5.1100*%
%ADD18C,0.9100*%
%ADD19R,2.3100X2.3100*%
%ADD20C,2.3100*%
%ADD21R,2.5100X2.5100*%
%ADD22C,2.5100*%
%ADD23C,1.6340*%
%ADD24R,2.3100X2.3100*%
%ADD25R,1.9100X1.9100*%
%ADD26C,1.9100*%
%ADD27R,2.5100X2.5100*%
%ADD28C,1.7100*%
%ADD29R,1.7100X1.7100*%
%ADD30R,1.7100X1.7100*%
%ADD69R,1.1600X1.5100*%
%ADD70R,1.5100X1.1600*%
%ADD71R,0.7100X2.0100*%
%ADD72R,1.8600X1.3600*%
%ADD73R,1.3300X1.0200*%
%ADD74R,1.5600X1.7600*%
%ADD75R,1.5600X0.7100*%
%ADD76R,0.7100X1.5600*%
%ADD77R,1.3600X1.8600*%
%ADD78R,3.9100X2.2600*%
%ADD79R,1.6100X2.2600*%
%ADD80R,1.4000X0.5000*%
%ADD81R,0.5000X1.4000*%
%ADD82R,1.3600X1.7100*%
%ADD83R,0.7100X1.6100*%
%ADD84R,2.1100X2.9100*%
D15*
X62500Y1490525D02*
D03*
X99000Y1044650D02*
D03*
X124000Y1157363D02*
D03*
D16*
X87500Y1490525D02*
D03*
X124000Y1044650D02*
D03*
X99000Y1157363D02*
D03*
X124000Y995000D02*
D03*
X141000D02*
D03*
X107000D02*
D03*
X908237Y1719263D02*
D03*
X478050Y1702000D02*
D03*
X1004374Y1050000D02*
D03*
X1408675Y1276000D02*
D03*
X816000Y1507000D02*
D03*
X623000Y735000D02*
D03*
X82143Y1360019D02*
D03*
X52000Y1360000D02*
D03*
X67071Y1360010D02*
D03*
X400000Y844000D02*
D03*
X1309050Y1519000D02*
D03*
X344412Y839712D02*
D03*
X1341375Y1057750D02*
D03*
X1119000Y1469000D02*
D03*
X485000Y1517000D02*
D03*
X663000Y1536000D02*
D03*
X931000Y1541000D02*
D03*
X1268000Y1519000D02*
D03*
X566950Y1517000D02*
D03*
X495072Y1252000D02*
D03*
X670000Y1300262D02*
D03*
X839788Y1416050D02*
D03*
Y1351062D02*
D03*
X723784Y1388572D02*
D03*
D17*
X730000Y1610000D02*
D03*
X1370000Y1400000D02*
D03*
X40000D02*
D03*
X990000Y970000D02*
D03*
X450000D02*
D03*
X730000D02*
D03*
X1170000Y471000D02*
D03*
X290000D02*
D03*
X1370000Y171000D02*
D03*
X730000D02*
D03*
X290000D02*
D03*
D18*
X660100Y1479812D02*
D03*
Y1463313D02*
D03*
X437000Y1033498D02*
D03*
X979000Y1453000D02*
D03*
X959000Y1418802D02*
D03*
X979000Y1430864D02*
D03*
X1234919Y1287000D02*
D03*
X897789Y1450040D02*
D03*
X889476Y1463278D02*
D03*
X670000Y1745000D02*
D03*
X1425000Y1465000D02*
D03*
X1396000Y1677000D02*
D03*
X975000Y1780000D02*
D03*
X875000Y1775000D02*
D03*
X753408Y1761935D02*
D03*
X551000Y1745000D02*
D03*
X471750Y1737250D02*
D03*
X1035000Y987326D02*
D03*
X1300000Y1258000D02*
D03*
X1159000Y1274000D02*
D03*
X1165505Y1283038D02*
D03*
X1132853Y1272694D02*
D03*
X1145169Y1273366D02*
D03*
X1409100Y1122363D02*
D03*
X1414000Y1140000D02*
D03*
X1358000Y1070000D02*
D03*
X489000Y824000D02*
D03*
X876000Y1519729D02*
D03*
X819000Y1535000D02*
D03*
Y1550000D02*
D03*
X676275Y1463313D02*
D03*
X648000Y1416000D02*
D03*
X728967Y1511125D02*
D03*
X635000Y1397000D02*
D03*
Y1385000D02*
D03*
X646999Y1365499D02*
D03*
X636000Y1362000D02*
D03*
X911000Y1485000D02*
D03*
X880015D02*
D03*
X843026Y1500886D02*
D03*
X848080Y1609725D02*
D03*
X819958Y1622958D02*
D03*
X676275Y1478759D02*
D03*
X876619Y1471676D02*
D03*
X849975Y1481165D02*
D03*
X764794Y1468400D02*
D03*
X875048Y1447274D02*
D03*
X797052Y1464056D02*
D03*
X776478Y1468400D02*
D03*
X782000Y1498562D02*
D03*
X888860Y1432350D02*
D03*
X912000Y1267460D02*
D03*
X881460D02*
D03*
Y1293460D02*
D03*
X795000Y1216540D02*
D03*
X870000Y1263000D02*
D03*
X871686Y1285379D02*
D03*
X860000Y1351062D02*
D03*
X858000Y1273000D02*
D03*
X941540Y1293460D02*
D03*
X938000Y1260000D02*
D03*
X896937Y1381125D02*
D03*
X870000Y1330000D02*
D03*
X868000Y1301000D02*
D03*
X424000Y1218053D02*
D03*
X508000D02*
D03*
X498000Y1208000D02*
D03*
X525080Y936000D02*
D03*
X487001Y1228725D02*
D03*
X468312Y547687D02*
D03*
X612460Y592540D02*
D03*
X1319212Y1570038D02*
D03*
X1225550Y1709380D02*
D03*
X424000Y1317000D02*
D03*
X623063Y1376062D02*
D03*
X444500Y1228725D02*
D03*
Y1079500D02*
D03*
X424000Y1064230D02*
D03*
X477999Y824000D02*
D03*
X431800Y557212D02*
D03*
X935262Y1620613D02*
D03*
X605050Y1557337D02*
D03*
X1381284Y1302191D02*
D03*
X1425575Y1289050D02*
D03*
X922337Y1608138D02*
D03*
X885825Y1624012D02*
D03*
X922582Y1702352D02*
D03*
X929091Y1641812D02*
D03*
X1370437Y1566438D02*
D03*
X1357450Y1651481D02*
D03*
X935125Y1688125D02*
D03*
X1308100Y1677713D02*
D03*
X420687Y804863D02*
D03*
X1294800Y1082675D02*
D03*
X1358300Y1135062D02*
D03*
X1307500Y1073998D02*
D03*
X1251000Y1058000D02*
D03*
X172300Y1412700D02*
D03*
X194000Y1414000D02*
D03*
X252050Y1360000D02*
D03*
X503220Y792162D02*
D03*
X1040000Y1470000D02*
D03*
X1358300Y1041000D02*
D03*
X1333000Y1155000D02*
D03*
X1171575Y1144460D02*
D03*
X414000Y591500D02*
D03*
X503220Y591000D02*
D03*
X1110000Y1706000D02*
D03*
X881000Y1583000D02*
D03*
X868920Y1598000D02*
D03*
X855265Y1640735D02*
D03*
X820000Y1640000D02*
D03*
X797000Y1324000D02*
D03*
X965000Y1293000D02*
D03*
X393700Y566738D02*
D03*
X1019000Y1484500D02*
D03*
X1358246Y1598754D02*
D03*
X1357864Y1556786D02*
D03*
X979000Y1260000D02*
D03*
X668000Y1325562D02*
D03*
X953200Y1260000D02*
D03*
X848000Y1281460D02*
D03*
X570000Y871000D02*
D03*
X582000Y880000D02*
D03*
X535000Y915758D02*
D03*
X921000Y1301000D02*
D03*
X880000Y1310000D02*
D03*
X934000D02*
D03*
X873000Y1575000D02*
D03*
X860335Y1383347D02*
D03*
X873000Y1381134D02*
D03*
X934275Y1662725D02*
D03*
X1212850Y1709380D02*
D03*
X934575Y1675425D02*
D03*
X979000Y1419000D02*
D03*
X896937Y1395887D02*
D03*
X904798Y1414462D02*
D03*
X922000Y1330000D02*
D03*
X594620Y636375D02*
D03*
X691212Y1314450D02*
D03*
X471488Y1228725D02*
D03*
Y1079500D02*
D03*
X457200D02*
D03*
Y1228725D02*
D03*
X384175Y804863D02*
D03*
X401637D02*
D03*
X1196975Y1706562D02*
D03*
X617750Y1566438D02*
D03*
X1114425Y388937D02*
D03*
Y355293D02*
D03*
X1194107Y403225D02*
D03*
Y355293D02*
D03*
X263525Y1163637D02*
D03*
X1396400Y1144587D02*
D03*
X1196250Y1127125D02*
D03*
X553435Y636375D02*
D03*
X452420Y577850D02*
D03*
X528620Y647700D02*
D03*
X541320Y626850D02*
D03*
X1377950Y1166813D02*
D03*
X566525Y1570038D02*
D03*
X1383700Y1144587D02*
D03*
X591925Y1601788D02*
D03*
X77200Y1638163D02*
D03*
X51800D02*
D03*
X77200Y1625462D02*
D03*
X51800D02*
D03*
X37513Y1600063D02*
D03*
Y1614350D02*
D03*
X93075D02*
D03*
Y1600063D02*
D03*
X134400Y1124025D02*
D03*
X80500D02*
D03*
D19*
X1424000Y1701000D02*
D03*
X1422000Y1589000D02*
D03*
X58200Y920000D02*
D03*
D20*
X1424000Y1651000D02*
D03*
X1422000Y1539000D02*
D03*
X1412000Y1796000D02*
D03*
X1309000D02*
D03*
X1206000D02*
D03*
X1103000D02*
D03*
X1000000D02*
D03*
X897000D02*
D03*
X794000D02*
D03*
X691000D02*
D03*
X588000D02*
D03*
X485000D02*
D03*
X382000Y1796000D02*
D03*
X279000D02*
D03*
X58200Y970000D02*
D03*
D21*
X245731Y445998D02*
D03*
X1337270D02*
D03*
X457271D02*
D03*
X143519Y1445997D02*
D03*
X308128Y1445997D02*
D03*
X1189481Y1445997D02*
D03*
X1024872Y1445997D02*
D03*
X685731Y445998D02*
D03*
X897270D02*
D03*
X1125730D02*
D03*
D22*
X120731D02*
D03*
X245731Y495998D02*
D03*
X120731D02*
D03*
X485000Y1457500D02*
D03*
Y1332500D02*
D03*
X535000Y1457500D02*
D03*
X1212270Y445998D02*
D03*
X1337270Y495998D02*
D03*
X1212270D02*
D03*
X208232Y233498D02*
D03*
Y108498D02*
D03*
X158232Y233498D02*
D03*
X419772D02*
D03*
Y108498D02*
D03*
X369772Y233498D02*
D03*
X648231D02*
D03*
Y108498D02*
D03*
X598231Y233498D02*
D03*
X859771D02*
D03*
Y108498D02*
D03*
X809771Y233498D02*
D03*
X1144107Y306312D02*
D03*
X1194107Y181312D02*
D03*
Y306312D02*
D03*
X1207745Y1033498D02*
D03*
X1257745Y908498D02*
D03*
Y1033498D02*
D03*
X332271Y495998D02*
D03*
X457271D02*
D03*
X332271Y445998D02*
D03*
X1082206Y1033498D02*
D03*
X1132206Y908498D02*
D03*
Y1033498D02*
D03*
X268519Y1445997D02*
D03*
X143519Y1395997D02*
D03*
X268519D02*
D03*
X433128Y1445997D02*
D03*
X308128Y1395997D02*
D03*
X433128D02*
D03*
X1314481Y1445997D02*
D03*
X1189481Y1395997D02*
D03*
X1314481D02*
D03*
X1149872Y1445997D02*
D03*
X1024872Y1395997D02*
D03*
X1149872D02*
D03*
X250255Y1033498D02*
D03*
Y908498D02*
D03*
X200255Y1033498D02*
D03*
X375793D02*
D03*
Y908498D02*
D03*
X325793Y1033498D02*
D03*
X648780D02*
D03*
Y908498D02*
D03*
X598780Y1033498D02*
D03*
X859770D02*
D03*
Y908498D02*
D03*
X809770Y1033498D02*
D03*
X560731Y445998D02*
D03*
X685731Y495998D02*
D03*
X560731D02*
D03*
X772270Y445998D02*
D03*
X897270Y495998D02*
D03*
X772270D02*
D03*
X1000730Y445998D02*
D03*
X1125730Y495998D02*
D03*
X1000730D02*
D03*
D23*
X92000Y1804850D02*
D03*
X66600D02*
D03*
X801140Y295368D02*
D03*
X775740D02*
D03*
X142346Y295368D02*
D03*
X116946D02*
D03*
X360298Y295368D02*
D03*
X334898D02*
D03*
X550191Y295368D02*
D03*
X524791D02*
D03*
D24*
X1362000Y1796000D02*
D03*
X1259000D02*
D03*
X1156000D02*
D03*
X1053000D02*
D03*
X950000D02*
D03*
X847000D02*
D03*
X744000D02*
D03*
X641000D02*
D03*
X538000D02*
D03*
X435000D02*
D03*
X332000Y1796000D02*
D03*
X229000D02*
D03*
D25*
X953200Y1205000D02*
D03*
D26*
X978600D02*
D03*
X1004000D02*
D03*
D27*
X535000Y1332500D02*
D03*
X158232Y108498D02*
D03*
X369772D02*
D03*
X598231D02*
D03*
X809771D02*
D03*
X1144107Y181312D02*
D03*
X1207745Y908498D02*
D03*
X1082206D02*
D03*
X200255D02*
D03*
X325793D02*
D03*
X598780D02*
D03*
X809770D02*
D03*
D28*
X620713Y1274762D02*
D03*
Y1300163D02*
D03*
Y1325562D02*
D03*
X1119200Y1319000D02*
D03*
Y1344400D02*
D03*
X1043000D02*
D03*
X1068400D02*
D03*
X1093800D02*
D03*
Y1319000D02*
D03*
X1068400D02*
D03*
X1017600D02*
D03*
X1043000D02*
D03*
X761500Y1706000D02*
D03*
X1169587Y1673013D02*
D03*
X1144187D02*
D03*
X1118788D02*
D03*
X1093388D02*
D03*
X1067988D02*
D03*
X1042588D02*
D03*
X1169587Y1520612D02*
D03*
X1144187D02*
D03*
X1118788D02*
D03*
X1093388D02*
D03*
X1067988D02*
D03*
X263525Y1081087D02*
D03*
X288925D02*
D03*
X314325D02*
D03*
X339725D02*
D03*
Y1233487D02*
D03*
X238125D02*
D03*
X263525D02*
D03*
X288925D02*
D03*
X314325D02*
D03*
X793000Y742950D02*
D03*
X767600D02*
D03*
X742200D02*
D03*
X716800D02*
D03*
X691400D02*
D03*
X666000D02*
D03*
X793000Y590550D02*
D03*
X767600D02*
D03*
X742200D02*
D03*
X716800D02*
D03*
X691400D02*
D03*
X416900Y1673013D02*
D03*
X391500D02*
D03*
X366100D02*
D03*
X340700D02*
D03*
X315300D02*
D03*
X289900D02*
D03*
X416900Y1520612D02*
D03*
X391500D02*
D03*
X366100D02*
D03*
X340700D02*
D03*
X315300D02*
D03*
X691400Y1081087D02*
D03*
X716800D02*
D03*
X742200D02*
D03*
X767600D02*
D03*
X793000D02*
D03*
X666000Y1233487D02*
D03*
X691400D02*
D03*
X716800D02*
D03*
X742200D02*
D03*
X767600D02*
D03*
X793000D02*
D03*
X353170Y742950D02*
D03*
X327770D02*
D03*
X302370D02*
D03*
X276970D02*
D03*
X251570D02*
D03*
X226170D02*
D03*
X353170Y590550D02*
D03*
X327770D02*
D03*
X302370D02*
D03*
X276970D02*
D03*
X251570D02*
D03*
X1145450Y1080612D02*
D03*
X1170850D02*
D03*
X1196250D02*
D03*
X1221650D02*
D03*
Y1233012D02*
D03*
X1120050D02*
D03*
X1145450D02*
D03*
X1170850D02*
D03*
X1196250D02*
D03*
X1234540Y742950D02*
D03*
X1209140D02*
D03*
X1183740D02*
D03*
X1158340D02*
D03*
X1132940D02*
D03*
X1107540D02*
D03*
X1234540Y590550D02*
D03*
X1209140D02*
D03*
X1183740D02*
D03*
X1158340D02*
D03*
X1132940D02*
D03*
D29*
X620713Y1350963D02*
D03*
D30*
X1017600Y1344400D02*
D03*
X696500Y1706000D02*
D03*
X1042588Y1520612D02*
D03*
X238125Y1081087D02*
D03*
X666000Y590550D02*
D03*
X289900Y1520612D02*
D03*
X666000Y1081087D02*
D03*
X226170Y590550D02*
D03*
X1120050Y1080612D02*
D03*
X1107540Y590550D02*
D03*
D69*
X69000Y1444487D02*
D03*
X87500D02*
D03*
X117212Y1239912D02*
D03*
X98713D02*
D03*
X66412Y1211338D02*
D03*
X47912D02*
D03*
X124550Y1761987D02*
D03*
X106050D02*
D03*
X80500Y1089100D02*
D03*
X99000D02*
D03*
X39700Y1093863D02*
D03*
X58200D02*
D03*
X99000Y1109737D02*
D03*
X80500D02*
D03*
X115900D02*
D03*
X134400D02*
D03*
X39700Y1052588D02*
D03*
X58200D02*
D03*
X39700Y1073225D02*
D03*
X58200D02*
D03*
X64500Y1761987D02*
D03*
X46000D02*
D03*
D70*
X686212Y1498562D02*
D03*
Y1517063D02*
D03*
X256000Y1626250D02*
D03*
Y1644750D02*
D03*
X182000Y1626250D02*
D03*
Y1644750D02*
D03*
X868000Y1531500D02*
D03*
Y1550000D02*
D03*
X841000Y1516500D02*
D03*
Y1535000D02*
D03*
X726663Y1550688D02*
D03*
Y1569187D02*
D03*
X1383700Y1244238D02*
D03*
Y1225738D02*
D03*
X959000Y1484500D02*
D03*
Y1466000D02*
D03*
X746212Y1498562D02*
D03*
Y1517063D02*
D03*
X642638Y1479812D02*
D03*
Y1498313D02*
D03*
X620412Y1426062D02*
D03*
Y1407563D02*
D03*
X642638Y1463313D02*
D03*
Y1444812D02*
D03*
X369242Y626000D02*
D03*
Y607500D02*
D03*
X973000Y1718750D02*
D03*
Y1737250D02*
D03*
X993000Y1718750D02*
D03*
Y1737250D02*
D03*
X1013000Y1718750D02*
D03*
Y1737250D02*
D03*
X1033000Y1718750D02*
D03*
Y1737250D02*
D03*
X1053000Y1718750D02*
D03*
Y1737250D02*
D03*
X1073000Y1718750D02*
D03*
Y1737250D02*
D03*
X1398000Y1500250D02*
D03*
Y1481750D02*
D03*
X1425000D02*
D03*
Y1500250D02*
D03*
X1332337Y1734250D02*
D03*
Y1715750D02*
D03*
X1357312D02*
D03*
Y1734250D02*
D03*
X1310000Y908000D02*
D03*
Y926500D02*
D03*
X1295400Y1039250D02*
D03*
Y1057750D02*
D03*
X766462Y1517063D02*
D03*
Y1498562D02*
D03*
X823612Y1332563D02*
D03*
Y1351062D02*
D03*
X686212Y1281763D02*
D03*
Y1300262D02*
D03*
X820437Y1416062D02*
D03*
Y1434563D02*
D03*
X746212Y1550688D02*
D03*
Y1532188D02*
D03*
X579650Y1665287D02*
D03*
Y1683788D02*
D03*
X455400Y1540063D02*
D03*
Y1521562D02*
D03*
X1203000D02*
D03*
Y1540063D02*
D03*
X478050Y1677713D02*
D03*
Y1659212D02*
D03*
X1232850Y1677713D02*
D03*
Y1659212D02*
D03*
X391670Y610000D02*
D03*
Y591500D02*
D03*
X1247000Y1100512D02*
D03*
Y1082012D02*
D03*
X452420Y747650D02*
D03*
Y729150D02*
D03*
X1320200Y1238163D02*
D03*
Y1219662D02*
D03*
X414320Y747650D02*
D03*
Y729150D02*
D03*
X515876Y735269D02*
D03*
Y753769D02*
D03*
X1282100Y1238163D02*
D03*
Y1219662D02*
D03*
X1332337Y1683788D02*
D03*
Y1665287D02*
D03*
X953200Y1246250D02*
D03*
Y1227750D02*
D03*
X999000Y1405000D02*
D03*
Y1386500D02*
D03*
X978600Y1246250D02*
D03*
Y1227750D02*
D03*
X979000Y1405000D02*
D03*
Y1386500D02*
D03*
X959000Y1405000D02*
D03*
Y1386500D02*
D03*
X999000Y1484500D02*
D03*
Y1466000D02*
D03*
X979000Y1484500D02*
D03*
Y1466000D02*
D03*
X224350Y1626250D02*
D03*
Y1607750D02*
D03*
X198950Y1626250D02*
D03*
Y1607750D02*
D03*
D71*
X414320Y705000D02*
D03*
X427020D02*
D03*
X439720D02*
D03*
X452420D02*
D03*
X465120D02*
D03*
X477820D02*
D03*
X490520D02*
D03*
X503220D02*
D03*
X515920D02*
D03*
X528620D02*
D03*
X541320D02*
D03*
X554020D02*
D03*
X414320Y610000D02*
D03*
X427020D02*
D03*
X439720D02*
D03*
X452420D02*
D03*
X465120D02*
D03*
X477820D02*
D03*
X490520D02*
D03*
X503220D02*
D03*
X515920D02*
D03*
X528620D02*
D03*
X541320D02*
D03*
X554020D02*
D03*
X478050Y1635063D02*
D03*
X490750D02*
D03*
X503450D02*
D03*
X516150D02*
D03*
X528850D02*
D03*
X541550D02*
D03*
X554250D02*
D03*
X566950D02*
D03*
X579650D02*
D03*
X592350D02*
D03*
X605050D02*
D03*
X617750D02*
D03*
X478050Y1540063D02*
D03*
X490750D02*
D03*
X503450D02*
D03*
X516150D02*
D03*
X528850D02*
D03*
X541550D02*
D03*
X554250D02*
D03*
X566950D02*
D03*
X579650D02*
D03*
X592350D02*
D03*
X605050D02*
D03*
X617750D02*
D03*
X1220150Y1635063D02*
D03*
X1232850D02*
D03*
X1245550D02*
D03*
X1258250D02*
D03*
X1270950D02*
D03*
X1283650D02*
D03*
X1296350D02*
D03*
X1309050D02*
D03*
X1321750D02*
D03*
X1334450D02*
D03*
X1347150D02*
D03*
X1359850D02*
D03*
X1220150Y1540063D02*
D03*
X1232850D02*
D03*
X1245550D02*
D03*
X1258250D02*
D03*
X1270950D02*
D03*
X1283650D02*
D03*
X1296350D02*
D03*
X1309050D02*
D03*
X1321750D02*
D03*
X1334450D02*
D03*
X1347150D02*
D03*
X1359850D02*
D03*
X1282100Y1195512D02*
D03*
X1294800D02*
D03*
X1307500D02*
D03*
X1320200D02*
D03*
X1332900D02*
D03*
X1345600D02*
D03*
X1358300D02*
D03*
X1371000D02*
D03*
X1383700D02*
D03*
X1396400D02*
D03*
X1409100D02*
D03*
X1421800D02*
D03*
X1282100Y1100512D02*
D03*
X1294800D02*
D03*
X1307500D02*
D03*
X1320200D02*
D03*
X1332900D02*
D03*
X1345600D02*
D03*
X1358300D02*
D03*
X1371000D02*
D03*
X1383700D02*
D03*
X1396400D02*
D03*
X1409100D02*
D03*
X1421800D02*
D03*
D72*
X1408675Y1253238D02*
D03*
Y1225738D02*
D03*
X652162Y1272763D02*
D03*
Y1300262D02*
D03*
X604625Y1665287D02*
D03*
Y1692787D02*
D03*
X1357312Y1665287D02*
D03*
Y1692787D02*
D03*
X540895Y735225D02*
D03*
Y762725D02*
D03*
D73*
X1320200Y1075263D02*
D03*
Y1042462D02*
D03*
X207000Y479598D02*
D03*
Y512398D02*
D03*
X247650Y1141937D02*
D03*
Y1109137D02*
D03*
X339725Y1445997D02*
D03*
Y1413197D02*
D03*
X1221650Y1445997D02*
D03*
Y1413197D02*
D03*
X1112838Y1445997D02*
D03*
Y1413197D02*
D03*
X1114425Y273512D02*
D03*
Y306312D02*
D03*
X1171575Y1000698D02*
D03*
Y1033498D02*
D03*
X566737Y1000698D02*
D03*
Y1033498D02*
D03*
D74*
X26913Y1239912D02*
D03*
X66413D02*
D03*
D75*
X954350Y1594462D02*
D03*
Y1581763D02*
D03*
Y1569062D02*
D03*
Y1556362D02*
D03*
Y1543663D02*
D03*
Y1530963D02*
D03*
Y1518262D02*
D03*
Y1505562D02*
D03*
X899850Y1594462D02*
D03*
Y1581763D02*
D03*
Y1569062D02*
D03*
Y1556362D02*
D03*
Y1543663D02*
D03*
Y1530963D02*
D03*
Y1518262D02*
D03*
Y1505562D02*
D03*
X954350Y1700825D02*
D03*
Y1688125D02*
D03*
Y1675425D02*
D03*
Y1662725D02*
D03*
Y1650025D02*
D03*
Y1637325D02*
D03*
Y1624625D02*
D03*
Y1611925D02*
D03*
X899850Y1700825D02*
D03*
Y1688125D02*
D03*
Y1675425D02*
D03*
Y1662725D02*
D03*
Y1650025D02*
D03*
Y1637325D02*
D03*
Y1624625D02*
D03*
Y1611925D02*
D03*
D76*
X237050Y1655750D02*
D03*
X224350D02*
D03*
X211650D02*
D03*
X198950D02*
D03*
X237050Y1710250D02*
D03*
X224350D02*
D03*
X211650D02*
D03*
X198950D02*
D03*
D77*
X92000Y1735000D02*
D03*
X64500D02*
D03*
D78*
X64500Y1606163D02*
D03*
D79*
X41500Y1543163D02*
D03*
X64500D02*
D03*
X87500D02*
D03*
D80*
X666713Y1426062D02*
D03*
Y1421062D02*
D03*
Y1416062D02*
D03*
Y1411062D02*
D03*
Y1406062D02*
D03*
Y1401062D02*
D03*
Y1396062D02*
D03*
Y1391062D02*
D03*
Y1386062D02*
D03*
Y1381062D02*
D03*
Y1376062D02*
D03*
Y1371062D02*
D03*
Y1366062D02*
D03*
Y1361062D02*
D03*
Y1356062D02*
D03*
Y1351062D02*
D03*
X780713D02*
D03*
Y1356062D02*
D03*
Y1361062D02*
D03*
Y1366062D02*
D03*
Y1371062D02*
D03*
Y1376062D02*
D03*
Y1381062D02*
D03*
Y1386062D02*
D03*
Y1391062D02*
D03*
Y1396062D02*
D03*
Y1401062D02*
D03*
Y1406062D02*
D03*
Y1411062D02*
D03*
Y1416062D02*
D03*
Y1421062D02*
D03*
Y1426062D02*
D03*
D81*
X686213Y1331562D02*
D03*
X691213D02*
D03*
X696213D02*
D03*
X701213D02*
D03*
X706213D02*
D03*
X711213D02*
D03*
X716213D02*
D03*
X721213D02*
D03*
X726213D02*
D03*
X731213D02*
D03*
X736213D02*
D03*
X741213D02*
D03*
X746213D02*
D03*
X751213D02*
D03*
X756213D02*
D03*
X761213D02*
D03*
Y1445562D02*
D03*
X756213D02*
D03*
X751213D02*
D03*
X746213D02*
D03*
X741213D02*
D03*
X736213D02*
D03*
X731213D02*
D03*
X726213D02*
D03*
X721213D02*
D03*
X716213D02*
D03*
X711213D02*
D03*
X706213D02*
D03*
X701213D02*
D03*
X696213D02*
D03*
X691213D02*
D03*
X686213D02*
D03*
D82*
X726662Y1532188D02*
D03*
X704662D02*
D03*
X726662Y1495188D02*
D03*
X704662D02*
D03*
D83*
X66413Y1124013D02*
D03*
X53713D02*
D03*
X41013D02*
D03*
X28313D02*
D03*
X66413Y1178012D02*
D03*
X53713D02*
D03*
X41013D02*
D03*
X28313D02*
D03*
D84*
X99000Y1305000D02*
D03*
X27000D02*
D03*
M02*
