M48
;Layer_Color=9474304
;FILE_FORMAT=4:4
METRIC,LZ
;TYPE=PLATED
T1F00S00C0.4000
T2F00S00C0.5000
T3F00S00C0.6000
T4F00S00C0.7000
T5F00S00C1.0000
T6F00S00C1.2000
T7F00S00C3.0000
%
T01
X01114425Y00355293
Y00388937
X01194107Y00403225
Y00355293
X0061246Y0059254
X0059462Y00636375
X00553435
X0054132Y0062685
X0052862Y006477
X0050322Y00591
X0045242Y0057785
X004318Y00557212
X00468312Y00547687
X003937Y00566738
X00414Y005915
X00420687Y00804863
X00401637
X00384175
X00477999Y00824
X00489
X0050322Y00792162
X0057Y00871
X00582Y0088
X00535Y00915758
X0052508Y00936
X01251Y01058
X012948Y01082675
X013075Y01073998
X01358Y0107
X013583Y01041
Y01135062
X013837Y01144587
X013964
X01414Y0114
X014091Y01122363
X0137795Y01166813
X01333Y01155
X013Y01258
X01234919Y01287
X01165505Y01283038
X01159Y01274
X01145169Y01273366
X01132853Y01272694
X01171575Y0114446
X0119625Y01127125
X01381284Y01302191
X01425575Y0128905
X00965Y01293
X0094154Y0129346
X00934Y0131
X00921Y01301
X00922Y0133
X0087
X0088Y0131
X0088146Y0129346
X00871686Y01285379
X00868Y01301
X00858Y01273
X00848Y0128146
X0087Y01263
X0088146Y0126746
X00912
X00938Y0126
X009532
X00979
X00795Y0121654
X00797Y01324
X00691212Y0131445
X01035Y00987326
X00437Y01033498
X00424Y0106423
X004445Y010795
X004572
X00471488
Y01228725
X004572
X004445
X00424Y01218053
X00487001Y01228725
X00508Y01218053
X00498Y01208
X00424Y01317
X00668Y01325562
X00263525Y01163637
X001344Y01124025
X000805
X001723Y014127
X00194Y01414
X0025205Y0136
X00093075Y01600063
Y0161435
X000772Y01625462
Y01638163
X000518
Y01625462
X00037513Y0161435
Y01600063
X00591925Y01601788
X00566525Y01570038
X0060505Y01557337
X0061775Y01566438
X00676275Y01478759
Y01463313
X00648Y01416
X00635Y01397
Y01385
X00623063Y01376062
X00636Y01362
X00646999Y01365499
X00764794Y014684
X00776478
X00797052Y01464056
X00782Y01498562
X00843026Y01500886
X00849975Y01481165
X00880015Y01485
X00876619Y01471676
X00889476Y01463278
X00897789Y0145004
X00875048Y01447274
X0088886Y0143235
X00904798Y01414462
X00896937Y01395887
Y01381125
X00873Y01381134
X00860335Y01383347
X0086Y01351062
X00959Y01418802
X00979Y01419
Y01430864
Y01453
X01019Y014845
X0104Y0147
X00911Y01485
X00876Y01519729
X00873Y01575
X00881Y01583
X0086892Y01598
X0084808Y01609725
X00855265Y01640735
X0082Y0164
X00819958Y01622958
X00885825Y01624012
X00922337Y01608138
X00935262Y01620613
X00929091Y01641812
X00934275Y01662725
X00934575Y01675425
X00935125Y01688125
X00922582Y01702352
X00819Y0155
Y01535
X00728967Y01511125
X0111Y01706
X01196975Y01706562
X0121285Y0170938
X0122555
X013081Y01677713
X0135745Y01651481
X01358246Y01598754
X01357864Y01556786
X01370437Y01566438
X01319212Y01570038
X01396Y01677
X01425Y01465
X00975Y0178
X00875Y01775
X00753408Y01761935
X0067Y01745
X00551
X0047175Y0173725
T02
X006601Y01463313
Y01479812
T03
X0022617Y0059055
X0025157
X0027697
Y0074295
X0025157
X0022617
X0030237
X0032777
X0035317
X00344412Y00839712
X004Y00844
X0035317Y0059055
X0032777
X0030237
X00666
Y0074295
X00623Y00735
X006914Y0074295
X007168
X007422
X007676
X00793
Y0059055
X007676
X007422
X007168
X006914
X0110754
X0113294
X0115834
X0118374
X0120914
X0123454
Y0074295
X0120914
X0118374
X0115834
X0113294
X0110754
X0112005Y01080612
X0114545
X0117085
X0119625
X0122165
X01341375Y0105775
X01408675Y01276
X0122165Y01233012
X0119625
X0117085
X0114545
X0112005
X01004374Y0105
X00793Y01081087
X007676
X007422
X007168
X006914
Y01233487
X007168
X007422
X007676
X00793
X00666
X0067Y01300262
X00666Y01081087
X00339725
X00314325
Y01233487
X00339725
X00495072Y01252
X00288925Y01233487
X00263525
X00238125
Y01081087
X00263525
X00288925
X00141Y00995
X00124
X00107
X00082143Y01360019
X00067071Y0136001
X00052Y0136
X002899Y01520612
Y01673013
X003153
X003407
X003661
X003915
X004169
X0047805Y01702
X00485Y01517
X004169Y01520612
X003915
X003661
X003407
X003153
X0056695Y01517
X00663Y01536
X00816Y01507
X00839788Y0141605
Y01351062
X00723784Y01388572
X00931Y01541
X01042588Y01520612
X01067988
Y01673013
X01042588
X00908237Y01719263
X01093388Y01673013
X01118788
X01144187
X01169587
Y01520612
X01144187
X01118788
X01093388
X01119Y01469
X01268Y01519
X0130905
T04
X0077574Y00295368
X0080114
X00550191Y00295368
X00524791
X00360298Y00295368
X00334898
X00142346Y00295368
X00116946
X00124Y0104465
X00099
X00099Y01157363
X00124
X000875Y01490525
X000625
X006965Y01706
X007615
X00092Y0180485
X000666
T05
X010938Y01319
X011192
X010684
X01043
X010176
X01004Y01205
X009786
X009532
X00620713Y01274762
Y01300163
Y01325562
Y01350963
X010176Y013444
X01043
X010684
X010938
X011192
T06
X00158232Y00108498
X00208232
X00369772
X00419772
X00598231
X00648231
X00809771
X00859771
X01144107Y00181312
X01194107
Y00306312
X01144107
X0112573Y00445998
Y00495998
X0121227
Y00445998
X0133727
Y00495998
X0100073
Y00445998
X0089727
Y00495998
X0077227
Y00445998
X00809771Y00233498
X00859771
X00648231
X00598231
X00419772
X00369772
X00332271Y00445998
Y00495998
X00457271
Y00445998
X00560731
Y00495998
X00685731
Y00445998
X00245731
Y00495998
X00120731
Y00445998
X00158232Y00233498
X00208232
X00200255Y00908498
X00250255
X000582Y0092
X00325793Y00908498
X00375793
X0059878
X0064878
X0080977
X0085977
X01082206
X01132206
X01207745
X01257745
Y01033498
X01207745
X01132206
X01082206
X0085977
X0080977
X0064878
X0059878
X00375793
X00325793
X00485Y013325
X00535
X00250255Y01033498
X00200255
X000582Y0097
X00143519Y01395997
Y01445997
X00268519
Y01395997
X00308128Y01395997
Y01445997
X00433128
Y01395997
X00485Y014575
X00535
X01024872Y01445997
Y01395997
X01149872
X01189481Y01395997
Y01445997
X01149872Y01445997
X01314481Y01445997
Y01395997
X01422Y01539
Y01589
X01424Y01651
Y01701
X01412Y01796
X01362
X01309
X01259
X01206
X01156
X01103
X01053
X01
X0095
X00897
X00847
X00794
X00744
X00691
X00641
X00588
X00538
X00485
X00435
X00382Y01796
X00332
X00279
X00229
T07
X0137Y00171
X0117Y00471
X0073Y00171
X0029
Y00471
X0073Y0097
X0099
X0045
X0004Y014
X0073Y0161
X0137Y014
M30
